<svg xmlns="http://www.w3.org/2000/svg" xmlns:xlink="http://www.w3.org/1999/xlink" width="1640" zoomAndPan="magnify" viewBox="0 0 1230 693.000001" height="924" preserveAspectRatio="xMidYMid meet" version="1.0"><defs><g/></defs><g fill="#ffffff" fill-opacity="1"><g transform="translate(249.243433, 393.164443)"><g/></g></g><g fill="#ffffff" fill-opacity="1"><g transform="translate(280.393783, 393.164443)"><g><path d="M 16.53125 -11.046875 C 8.175781 -20.160156 4 -31.332031 4 -44.5625 C 4 -57.789062 8.175781 -68.988281 16.53125 -78.15625 C 24.894531 -87.320312 35.515625 -91.90625 48.390625 -91.90625 C 60.234375 -91.90625 69.984375 -88.191406 77.640625 -80.765625 L 77.640625 -89.296875 L 108.453125 -89.296875 L 108.453125 0 L 77.984375 0 L 77.984375 -10.09375 L 77.640625 -10.09375 C 69.984375 -1.625 60.234375 2.609375 48.390625 2.609375 C 35.515625 2.609375 24.894531 -1.941406 16.53125 -11.046875 Z M 42.734375 -59.703125 C 38.734375 -55.765625 36.734375 -50.71875 36.734375 -44.5625 C 36.734375 -38.414062 38.644531 -33.394531 42.46875 -29.5 C 46.300781 -25.613281 51.351562 -23.671875 57.625 -23.671875 C 63.65625 -23.671875 68.613281 -25.644531 72.5 -29.59375 C 76.382812 -33.539062 78.328125 -38.53125 78.328125 -44.5625 C 78.328125 -50.71875 76.328125 -55.765625 72.328125 -59.703125 C 68.328125 -63.648438 63.425781 -65.625 57.625 -65.625 C 51.695312 -65.625 46.734375 -63.648438 42.734375 -59.703125 Z M 42.734375 -59.703125 "/></g></g></g><g fill="#ffffff" fill-opacity="1"><g transform="translate(382.896089, 393.164443)"><g><path d="M 16.53125 -11.046875 C 8.175781 -20.160156 4 -31.332031 4 -44.5625 C 4 -57.789062 8.175781 -68.988281 16.53125 -78.15625 C 24.894531 -87.320312 35.515625 -91.90625 48.390625 -91.90625 C 60.234375 -91.90625 69.984375 -88.191406 77.640625 -80.765625 L 77.640625 -89.296875 L 108.453125 -89.296875 L 108.453125 0 L 77.984375 0 L 77.984375 -10.09375 L 77.640625 -10.09375 C 69.984375 -1.625 60.234375 2.609375 48.390625 2.609375 C 35.515625 2.609375 24.894531 -1.941406 16.53125 -11.046875 Z M 42.734375 -59.703125 C 38.734375 -55.765625 36.734375 -50.71875 36.734375 -44.5625 C 36.734375 -38.414062 38.644531 -33.394531 42.46875 -29.5 C 46.300781 -25.613281 51.351562 -23.671875 57.625 -23.671875 C 63.65625 -23.671875 68.613281 -25.644531 72.5 -29.59375 C 76.382812 -33.539062 78.328125 -38.53125 78.328125 -44.5625 C 78.328125 -50.71875 76.328125 -55.765625 72.328125 -59.703125 C 68.328125 -63.648438 63.425781 -65.625 57.625 -65.625 C 51.695312 -65.625 46.734375 -63.648438 42.734375 -59.703125 Z M 42.734375 -59.703125 "/></g></g></g><g fill="#ffffff" fill-opacity="1"><g transform="translate(485.398395, 393.164443)"><g><path d="M 49.265625 -91.90625 C 54.367188 -91.90625 59.414062 -91.328125 64.40625 -90.171875 C 69.394531 -89.015625 73.109375 -87.851562 75.546875 -86.6875 L 79.203125 -84.953125 L 69.109375 -64.75 C 62.148438 -68.46875 55.535156 -70.328125 49.265625 -70.328125 C 45.785156 -70.328125 43.316406 -69.945312 41.859375 -69.1875 C 40.410156 -68.4375 39.6875 -67.019531 39.6875 -64.9375 C 39.6875 -64.46875 39.742188 -64 39.859375 -63.53125 C 39.972656 -63.070312 40.203125 -62.640625 40.546875 -62.234375 C 40.898438 -61.828125 41.222656 -61.476562 41.515625 -61.1875 C 41.804688 -60.894531 42.300781 -60.570312 43 -60.21875 C 43.695312 -59.875 44.25 -59.613281 44.65625 -59.4375 C 45.0625 -59.269531 45.726562 -59.007812 46.65625 -58.65625 C 47.582031 -58.3125 48.273438 -58.050781 48.734375 -57.875 C 49.203125 -57.707031 49.988281 -57.445312 51.09375 -57.09375 C 52.195312 -56.75 53.035156 -56.519531 53.609375 -56.40625 C 57.210938 -55.351562 60.347656 -54.1875 63.015625 -52.90625 C 65.679688 -51.632812 68.492188 -49.894531 71.453125 -47.6875 C 74.410156 -45.488281 76.703125 -42.707031 78.328125 -39.34375 C 79.953125 -35.976562 80.765625 -32.148438 80.765625 -27.859375 C 80.765625 -7.546875 66.664062 2.609375 38.46875 2.609375 C 32.082031 2.609375 26.015625 1.625 20.265625 -0.34375 C 14.523438 -2.320312 10.378906 -4.296875 7.828125 -6.265625 L 4 -9.40625 L 16.53125 -30.46875 C 17.46875 -29.65625 18.6875 -28.695312 20.1875 -27.59375 C 21.695312 -26.488281 24.425781 -24.976562 28.375 -23.0625 C 32.320312 -21.144531 35.742188 -20.1875 38.640625 -20.1875 C 45.023438 -20.1875 48.21875 -22.335938 48.21875 -26.640625 C 48.21875 -28.609375 47.40625 -30.144531 45.78125 -31.25 C 44.15625 -32.351562 41.398438 -33.597656 37.515625 -34.984375 C 33.628906 -36.378906 30.582031 -37.65625 28.375 -38.8125 C 22.800781 -41.71875 18.390625 -45 15.140625 -48.65625 C 11.890625 -52.3125 10.265625 -57.15625 10.265625 -63.1875 C 10.265625 -72.238281 13.773438 -79.285156 20.796875 -84.328125 C 27.816406 -89.378906 37.304688 -91.90625 49.265625 -91.90625 Z M 49.265625 -91.90625 "/></g></g></g><g fill="#ffffff" fill-opacity="1"><g transform="translate(554.659872, 393.164443)"><g><path d="M 10.4375 0 L 10.4375 -149.703125 L 41.25 -149.703125 L 41.25 -79.90625 L 41.609375 -79.90625 C 49.609375 -87.90625 58.132812 -91.90625 67.1875 -91.90625 C 71.601562 -91.90625 75.984375 -91.328125 80.328125 -90.171875 C 84.679688 -89.015625 88.859375 -87.21875 92.859375 -84.78125 C 96.867188 -82.34375 100.117188 -78.890625 102.609375 -74.421875 C 105.109375 -69.953125 106.359375 -64.757812 106.359375 -58.84375 L 106.359375 0 L 75.546875 0 L 75.546875 -50.484375 C 75.546875 -55.128906 74.066406 -59.191406 71.109375 -62.671875 C 68.148438 -66.148438 64.289062 -67.890625 59.53125 -67.890625 C 54.894531 -67.890625 50.6875 -66.085938 46.90625 -62.484375 C 43.132812 -58.890625 41.25 -54.890625 41.25 -50.484375 L 41.25 0 Z M 10.4375 0 "/></g></g></g><g fill="#ffffff" fill-opacity="1"><g transform="translate(653.333385, 393.164443)"><g><path d="M 10.4375 0 L 10.4375 -89.296875 L 41.25 -89.296875 L 41.25 -76.421875 L 41.609375 -76.421875 C 41.835938 -76.878906 42.210938 -77.457031 42.734375 -78.15625 C 43.253906 -78.851562 44.382812 -80.070312 46.125 -81.8125 C 47.863281 -83.550781 49.71875 -85.117188 51.6875 -86.515625 C 53.664062 -87.910156 56.222656 -89.15625 59.359375 -90.25 C 62.492188 -91.351562 65.6875 -91.90625 68.9375 -91.90625 C 72.300781 -91.90625 75.609375 -91.441406 78.859375 -90.515625 C 82.109375 -89.585938 84.488281 -88.660156 86 -87.734375 L 88.4375 -86.34375 L 75.546875 -60.234375 C 71.722656 -63.484375 66.382812 -65.109375 59.53125 -65.109375 C 55.820312 -65.109375 52.628906 -64.296875 49.953125 -62.671875 C 47.285156 -61.046875 45.398438 -59.070312 44.296875 -56.75 C 43.203125 -54.425781 42.421875 -52.453125 41.953125 -50.828125 C 41.484375 -49.203125 41.25 -47.925781 41.25 -47 L 41.25 0 Z M 10.4375 0 "/></g></g></g><g fill="#ffffff" fill-opacity="1"><g transform="translate(723.639051, 393.164443)"><g><path d="M 16.53125 -11.046875 C 8.175781 -20.160156 4 -31.332031 4 -44.5625 C 4 -57.789062 8.175781 -68.988281 16.53125 -78.15625 C 24.894531 -87.320312 35.515625 -91.90625 48.390625 -91.90625 C 60.234375 -91.90625 69.984375 -88.191406 77.640625 -80.765625 L 77.640625 -89.296875 L 108.453125 -89.296875 L 108.453125 0 L 77.984375 0 L 77.984375 -10.09375 L 77.640625 -10.09375 C 69.984375 -1.625 60.234375 2.609375 48.390625 2.609375 C 35.515625 2.609375 24.894531 -1.941406 16.53125 -11.046875 Z M 42.734375 -59.703125 C 38.734375 -55.765625 36.734375 -50.71875 36.734375 -44.5625 C 36.734375 -38.414062 38.644531 -33.394531 42.46875 -29.5 C 46.300781 -25.613281 51.351562 -23.671875 57.625 -23.671875 C 63.65625 -23.671875 68.613281 -25.644531 72.5 -29.59375 C 76.382812 -33.539062 78.328125 -38.53125 78.328125 -44.5625 C 78.328125 -50.71875 76.328125 -55.765625 72.328125 -59.703125 C 68.328125 -63.648438 63.425781 -65.625 57.625 -65.625 C 51.695312 -65.625 46.734375 -63.648438 42.734375 -59.703125 Z M 42.734375 -59.703125 "/></g></g></g><g fill="#ffffff" fill-opacity="1"><g transform="translate(826.141336, 393.164443)"><g><path d="M 78.15625 -89.296875 L 113.671875 -89.296875 L 43.515625 45.265625 L 8 45.265625 L 38.8125 -13.921875 L -3.484375 -89.296875 L 32.03125 -89.296875 L 56.921875 -43.515625 Z M 78.15625 -89.296875 "/></g></g></g><g fill="#ffffff" fill-opacity="1"><g transform="translate(919.94187, 393.164443)"><g><path d="M 30.296875 -37.25 C 35.859375 -37.25 40.582031 -35.304688 44.46875 -31.421875 C 48.363281 -27.535156 50.3125 -22.804688 50.3125 -17.234375 C 50.3125 -11.773438 48.363281 -7.101562 44.46875 -3.21875 C 40.582031 0.664062 35.859375 2.609375 30.296875 2.609375 C 24.835938 2.609375 20.160156 0.664062 16.265625 -3.21875 C 12.378906 -7.101562 10.4375 -11.773438 10.4375 -17.234375 C 10.4375 -22.804688 12.378906 -27.535156 16.265625 -31.421875 C 20.160156 -35.304688 24.835938 -37.25 30.296875 -37.25 Z M 30.296875 -37.25 "/></g></g></g></svg>